<svg width="807" height="699" viewBox="0 0 807 699" fill="none" xmlns="http://www.w3.org/2000/svg">
<g clip-path="url(#clip0_2_2)">
<path d="M554.462 215.989C554.434 231.778 549.725 247.203 540.93 260.315C532.135 273.427 519.65 283.637 505.053 289.653C490.455 295.669 474.402 297.222 458.922 294.114C443.443 291.006 429.232 283.378 418.088 272.194C406.944 261.01 399.366 246.773 396.313 231.283C393.26 215.792 394.87 199.744 400.938 185.168C407.005 170.592 417.259 158.143 430.402 149.395C443.546 140.647 458.988 135.992 474.776 136.02C485.267 136.011 495.656 138.076 505.346 142.095C515.037 146.115 523.837 152.009 531.242 159.441C538.647 166.872 544.511 175.693 548.495 185.398C552.48 195.102 554.508 205.499 554.462 215.989V215.989Z" fill="#F2F2F2"/>
<path d="M687.321 262.523L698.545 241.091C688.48 228.936 655.457 214.195 655.457 214.195L610.762 173.514C610.286 171.699 609.34 170.041 608.02 168.708C606.699 167.374 605.051 166.412 603.241 165.919C601.431 165.425 599.522 165.416 597.708 165.894C595.893 166.373 594.237 167.32 592.905 168.642C591.574 169.964 590.613 171.613 590.122 173.424C589.63 175.235 589.624 177.143 590.104 178.957C590.585 180.771 591.534 182.426 592.858 183.757C594.181 185.087 595.832 186.045 597.643 186.534L645.929 244.446L687.321 262.523Z" fill="#9E616A"/>
<path d="M681.884 261.044L697.732 266.09C709.258 269.76 721.677 269.483 733.027 265.304V265.304C736.461 264.026 739.468 261.813 741.71 258.915C743.952 256.017 745.338 252.55 745.713 248.906V248.906C746.187 243.962 744.767 239.022 741.739 235.086C738.711 231.149 734.301 228.51 729.401 227.7C714.538 225.258 695.387 224.053 688.555 232.183L688.486 232.266L681.884 261.044Z" fill="#3F3D56"/>
<path d="M567.886 326.655C611.974 326.655 647.714 290.915 647.714 246.828C647.714 202.74 611.974 167 567.886 167C523.798 167 488.058 202.74 488.058 246.828C488.058 290.915 523.798 326.655 567.886 326.655Z" fill="white"/>
<path d="M535.307 215.603C534.211 221.49 532.415 227.224 529.956 232.683C515.874 262.473 555.976 252.763 570.307 252.763C585.976 252.763 600.968 261.002 598.678 224.392C597.7 208.753 585.976 196.02 570.307 196.02C556.923 196.02 538.106 201.969 535.307 215.603Z" fill="#2F2E41"/>
<path d="M567.96 252.756C580.692 252.756 591.014 242.434 591.014 229.701C591.014 216.968 580.692 206.646 567.96 206.646C555.227 206.646 544.905 216.968 544.905 229.701C544.905 242.434 555.227 252.756 567.96 252.756Z" fill="#FFB6B6"/>
<path d="M552.303 206.2C556.343 203.737 560.97 202.405 565.701 202.342C570.432 202.28 575.093 203.49 579.197 205.845C583.3 208.201 586.695 211.615 589.028 215.732C591.36 219.849 592.543 224.517 592.453 229.248C580.706 232.197 568.364 234.454 555.836 229.953L552.878 222.712L551.133 229.958C547.318 231.518 543.493 232.837 539.668 229.943C539.512 225.226 540.596 220.55 542.814 216.384C545.031 212.217 548.303 208.705 552.303 206.2V206.2Z" fill="#2F2E41"/>
<path d="M629.956 299.908C616.126 315.644 596.663 325.311 575.767 326.821C554.872 328.331 534.221 321.564 518.272 307.98L525.119 288.874C526.666 285.481 529.108 282.572 532.182 280.461C535.257 278.35 538.848 277.116 542.57 276.89L546.926 276.623L557.313 267.665C557.313 267.665 585.299 266.665 584.884 266.187L601.836 276.383L601.822 276.313L608.486 276.721C612.209 276.946 615.801 278.18 618.875 280.291C621.95 282.402 624.391 285.311 625.938 288.705L629.956 299.908Z" fill="white"/>
<path d="M43.8824 139.845L41.8988 112.256C28.9054 105.761 14.5228 102.536 0 102.861C20.4317 118.654 18.7951 150.218 32.9451 171.82C37.41 178.524 43.3262 184.137 50.2552 188.243C57.1843 192.35 64.9486 194.844 72.9727 195.542L89.9768 205.324C91.922 192.468 91.0569 179.343 87.4411 166.854C83.8254 154.364 77.545 142.807 69.0326 132.978C64.2025 127.512 58.7033 122.675 52.6647 118.583C48.948 129.254 43.8824 139.845 43.8824 139.845Z" fill="#F2F2F2"/>
<path d="M635.268 684.997L622.004 684.996L615.694 633.837H635.27L635.268 684.997Z" fill="#9E616A"/>
<path d="M638.65 697.854L595.883 697.852V697.312C595.883 692.897 597.637 688.663 600.759 685.541C603.88 682.42 608.114 680.666 612.529 680.665H612.53L620.342 674.739L634.918 680.666L638.651 680.667L638.65 697.854Z" fill="#2F2E41"/>
<path d="M752.165 684.997L738.902 684.996L732.592 633.837H752.168L752.165 684.997Z" fill="#9E616A"/>
<path d="M755.548 697.854L712.78 697.852V697.312C712.781 692.897 714.535 688.663 717.656 685.541C720.778 682.42 725.012 680.666 729.427 680.665H729.428L737.24 674.739L751.815 680.666L755.549 680.667L755.548 697.854Z" fill="#2F2E41"/>
<path d="M731.992 411.186L743.148 517.166C743.148 517.166 757.999 623.283 755.21 637.925C752.421 652.568 755.907 654.659 755.907 654.659L730.459 652.847C730.459 652.847 731.156 643.783 726.973 639.599C722.789 635.416 724.881 622.865 724.881 622.865L675.516 450.231L645.534 540.873C645.534 540.873 640.653 640.578 639.956 641.973C639.259 643.367 637.167 662.193 637.167 662.193H611.369C611.369 662.193 614.855 651.037 609.975 647.551C605.094 644.064 600.911 646.853 605.094 640.578C609.278 634.303 610.672 626.633 609.278 623.147C607.883 619.661 607.883 605.716 607.883 605.716C607.883 605.716 609.975 417.461 621.828 411.186C633.681 404.911 731.992 411.186 731.992 411.186Z" fill="#2F2E41"/>
<path d="M679.16 196.602C694.314 196.602 706.599 184.317 706.599 169.163C706.599 154.009 694.314 141.724 679.16 141.724C664.006 141.724 651.722 154.009 651.722 169.163C651.722 184.317 664.006 196.602 679.16 196.602Z" fill="#9E616A"/>
<path d="M741.475 422.737C688.336 433.711 617.917 414.844 617.917 414.844L636.702 333.414L630.023 248.197C629.208 237.776 635.143 228.007 644.377 224.545L657.127 219.77L667.666 204.682L697.77 205.669L709.804 221.51L719.301 226.548L739.889 237.468L739.98 237.513V237.558L733.519 300.23L729.622 338.018C729.622 338.018 741.457 380.518 739.028 386.154C736.6 391.782 738.711 389.063 739.3 392.071C739.889 395.08 741.692 395.27 741.964 401.197C742.245 407.114 741.475 422.737 741.475 422.737Z" fill="#3F3D56"/>
<path d="M677.825 195.284C682.638 195.234 687.437 194.774 692.172 193.908C696.858 192.828 707.199 184.832 710.017 180.109C712.111 176.599 713.368 171.17 714.054 167.235C714.979 162.026 714.801 156.681 713.53 151.545C712.259 146.41 709.923 141.599 706.674 137.423C705.422 135.674 703.72 134.296 701.749 133.434C701.574 133.371 701.395 133.316 701.214 133.27C698.357 132.596 695.766 131.084 693.774 128.927C693.387 128.49 692.97 128.082 692.524 127.706C690.29 125.917 687.664 124.682 684.861 124.102C680.332 123.014 673.854 124.377 665.607 128.156C661.464 130.055 656.865 129.525 653.321 128.851C653.122 128.818 652.918 128.838 652.73 128.908C652.541 128.978 652.374 129.097 652.245 129.252C650.781 130.698 648.825 131.537 646.768 131.6C645.51 131.688 644.233 133.466 642.694 135.782C642.345 136.308 641.938 136.922 641.642 137.296L641.583 136.593L640.89 137.397C639.802 138.661 639.051 140.179 638.708 141.811C638.364 143.443 638.44 145.135 638.926 146.731C639.413 148.326 640.295 149.772 641.491 150.934C642.687 152.096 644.158 152.937 645.766 153.378C647.042 153.682 648.346 153.856 649.657 153.895C650.452 153.946 651.275 153.999 652.064 154.115C654.601 154.566 656.977 155.668 658.961 157.312C660.944 158.956 662.468 161.086 663.382 163.495C663.598 164.051 663.939 164.551 664.379 164.955C664.819 165.359 665.345 165.656 665.918 165.824C666.491 165.993 667.095 166.027 667.683 165.924C668.271 165.822 668.828 165.586 669.311 165.234C670.113 164.575 671.063 164.12 672.08 163.908C673.096 163.696 674.149 163.732 675.148 164.015C676.017 164.469 676.703 165.208 677.092 166.108C677.562 167.11 678.319 167.949 679.268 168.519C682.503 170.082 682.912 177.369 681.922 183.478C680.968 189.366 678.892 193.662 676.875 193.923C675.321 194.125 675.146 194.24 675.04 194.518L674.946 194.767L675.127 194.993C675.995 195.283 676.916 195.382 677.825 195.284V195.284Z" fill="#2F2E41"/>
<path d="M567.886 327.655C551.9 327.655 536.273 322.915 522.981 314.033C509.689 305.152 499.329 292.528 493.211 277.759C487.094 262.99 485.493 246.738 488.612 231.059C491.73 215.38 499.429 200.978 510.732 189.674C522.036 178.37 536.438 170.672 552.118 167.553C567.797 164.434 584.048 166.035 598.818 172.153C613.587 178.27 626.21 188.63 635.092 201.922C643.973 215.214 648.714 230.841 648.714 246.828C648.69 268.257 640.166 288.802 625.013 303.955C609.86 319.107 589.316 327.631 567.886 327.655V327.655ZM567.886 168C552.296 168 537.055 172.623 524.092 181.285C511.129 189.947 501.025 202.258 495.059 216.662C489.093 231.065 487.532 246.915 490.573 262.206C493.615 277.497 501.122 291.543 512.147 302.567C523.171 313.591 537.217 321.099 552.508 324.141C567.799 327.182 583.648 325.621 598.052 319.655C612.456 313.689 624.767 303.585 633.429 290.622C642.091 277.659 646.714 262.418 646.714 246.828C646.69 225.929 638.378 205.892 623.6 191.114C608.822 176.336 588.785 168.024 567.886 168Z" fill="#3F3D56"/>
<path d="M288.886 160.655C332.974 160.655 368.714 124.915 368.714 80.8276C368.714 36.74 332.974 0.999878 288.886 0.999878C244.798 0.999878 209.058 36.74 209.058 80.8276C209.058 124.915 244.798 160.655 288.886 160.655Z" fill="white"/>
<path d="M292.581 88.9705C306.957 88.9705 318.611 77.3163 318.611 62.9401C318.611 48.5639 306.957 36.9097 292.581 36.9097C278.204 36.9097 266.55 48.5639 266.55 62.9401C266.55 77.3163 278.204 88.9705 292.581 88.9705Z" fill="#FFB8B8"/>
<path d="M315.5 45.7439C315.5 45.7439 322.277 32.7875 307.366 31.6097C307.366 31.6097 294.655 20.0789 281.699 29.5017C281.699 29.5017 274.632 29.5017 270.767 37.4989C270.767 37.4989 265.209 35.3909 263.987 41.0325C263.987 41.0325 259.92 52.811 263.987 63.4117C268.055 74.0124 269.405 75.1902 269.405 75.1902C269.405 75.1902 266.552 62.0354 282.819 60.8575C299.087 59.6796 314.01 49.4888 315.366 62.4451C316.722 75.4015 318.212 69.5486 318.212 69.5486C318.212 69.5486 331.088 51.0443 315.5 45.7439Z" fill="#2F2E41"/>
<path d="M348.92 133.908C335.09 149.644 315.627 159.311 294.731 160.821C273.836 162.331 253.185 155.564 237.236 141.98L244.083 122.874C245.63 119.481 248.072 116.572 251.146 114.461C254.221 112.35 257.812 111.116 261.534 110.89L265.89 110.623L276.277 101.665C276.277 101.665 304.263 100.665 303.848 100.187L320.8 110.383L320.786 110.313L327.45 110.721C331.173 110.946 334.764 112.18 337.839 114.291C340.914 116.402 343.355 119.311 344.902 122.705L348.92 133.908Z" fill="white"/>
<path d="M288.886 161.655C272.9 161.655 257.273 156.915 243.981 148.033C230.689 139.152 220.329 126.528 214.211 111.759C208.094 96.9897 206.493 80.738 209.612 65.059C212.73 49.3799 220.429 34.9778 231.732 23.6739C243.036 12.3699 257.439 4.67184 273.118 1.55309C288.797 -1.56566 305.048 0.0349855 319.818 6.15264C334.587 12.2703 347.21 22.6302 356.092 35.9222C364.973 49.2142 369.714 64.8414 369.714 80.8276C369.69 102.257 361.166 122.802 346.013 137.955C330.86 153.107 310.316 161.631 288.886 161.655V161.655ZM288.886 2C273.296 2 258.055 6.62316 245.092 15.2848C232.129 23.9465 222.025 36.2577 216.059 50.6616C210.093 65.0655 208.532 80.9151 211.573 96.2061C214.615 111.497 222.122 125.543 233.147 136.567C244.171 147.591 258.217 155.099 273.508 158.141C288.799 161.182 304.648 159.621 319.052 153.655C333.456 147.689 345.767 137.585 354.429 124.622C363.091 111.659 367.714 96.4183 367.714 80.8276C367.69 59.9285 359.378 39.8922 344.6 25.1143C329.822 10.3364 309.785 2.02371 288.886 2V2Z" fill="#3F3D56"/>
<path d="M102.563 286.655C146.65 286.655 182.391 250.915 182.391 206.828C182.391 162.74 146.65 127 102.563 127C58.4752 127 22.735 162.74 22.735 206.828C22.735 250.915 58.4752 286.655 102.563 286.655Z" fill="white"/>
<path d="M65.5634 180.86C68.8642 170.34 76.3704 160.692 86.7514 157.135C97.1329 153.579 112.334 158.997 120.139 166.775C134.415 181.003 137.899 229.881 128.09 245.327C126.14 245.223 119.408 245.147 117.433 245.073L114.64 235.763V244.981C111.494 244.884 108.324 244.817 105.129 244.78C94.417 244.647 84.1736 240.366 76.5524 232.837C68.9312 225.309 64.5258 215.118 64.2623 204.409C64.0067 194.163 64.2626 185.005 65.5634 180.86Z" fill="#2F2E41"/>
<path d="M101.379 215.724C113.944 215.724 124.129 205.539 124.129 192.974C124.129 180.409 113.944 170.224 101.379 170.224C88.8142 170.224 78.6285 180.409 78.6285 192.974C78.6285 205.539 88.8142 215.724 101.379 215.724Z" fill="#9E616A"/>
<path d="M81.7446 172.994L107.939 159.877C113.295 162.291 117.907 166.093 121.298 170.889C124.689 175.686 126.734 181.302 127.223 187.156L127.876 194.976L116.907 192.184L115.705 182.184L113.842 191.404L108.78 190.116L108.828 174.59L103.763 190.105L85.6833 185.951L81.7446 172.994Z" fill="#2F2E41"/>
<path d="M161.8 259.654C147.97 275.391 128.507 285.057 107.612 286.567C86.7161 288.077 66.065 281.31 50.1161 267.726L56.9631 248.62C58.5104 245.227 60.9522 242.319 64.0266 240.207C67.101 238.096 70.6921 236.862 74.4148 236.636L78.7707 236.369L89.1573 227.411C89.1573 227.411 117.144 226.411 116.728 225.933L133.68 236.13L133.666 236.059L140.33 236.467C144.053 236.692 147.645 237.926 150.719 240.037C153.794 242.149 156.236 245.057 157.782 248.451L161.8 259.654Z" fill="white"/>
<path d="M102.563 287.655C86.5769 287.655 70.9497 282.915 57.6576 274.033C44.3656 265.152 34.0057 252.528 27.888 237.759C21.7704 222.99 20.1697 206.738 23.2885 191.059C26.4073 175.38 34.1053 160.978 45.4093 149.674C56.7132 138.37 71.1153 130.672 86.7944 127.553C102.473 124.434 118.725 126.035 133.494 132.153C148.264 138.27 160.887 148.63 169.769 161.922C178.65 175.214 183.391 190.841 183.391 206.828C183.366 228.257 174.843 248.802 159.69 263.954C144.537 279.107 123.992 287.631 102.563 287.655ZM102.563 128C86.9724 128 71.7319 132.623 58.7688 141.285C45.8056 149.946 35.7021 162.258 29.7358 176.662C23.7695 191.065 22.2085 206.915 25.2501 222.206C28.2916 237.497 35.7992 251.543 46.8235 262.567C57.8477 273.591 71.8935 281.099 87.1845 284.141C102.476 287.182 118.325 285.621 132.729 279.655C147.133 273.689 159.444 263.585 168.106 250.622C176.768 237.659 181.391 222.418 181.391 206.828C181.367 185.928 173.054 165.892 158.276 151.114C143.499 136.336 123.462 128.024 102.563 128V128Z" fill="#3F3D56"/>
<path d="M641.613 288.241L629.527 267.283C613.872 269.271 583.735 289.261 583.735 289.261L525.441 305.211C523.653 304.64 521.747 304.551 519.914 304.952C518.08 305.352 516.385 306.229 514.999 307.493C513.612 308.757 512.583 310.364 512.014 312.152C511.446 313.941 511.359 315.847 511.762 317.68C512.165 319.512 513.043 321.206 514.309 322.592C515.575 323.977 517.183 325.004 518.972 325.57C520.761 326.136 522.667 326.221 524.5 325.816C526.332 325.411 528.025 324.53 529.409 323.263L604.176 313.511L641.613 288.241Z" fill="#9E616A"/>
<path d="M637.452 292.04L664.509 269.377L668.445 251.135C669.205 247.551 668.947 243.826 667.701 240.381C666.455 236.936 664.27 233.908 661.393 231.639V231.639C657.472 228.59 652.541 227.144 647.594 227.592C642.648 228.04 638.057 230.35 634.748 234.054C624.724 245.297 613.449 260.823 616.655 270.947L616.687 271.05L637.452 292.04Z" fill="#3F3D56"/>
<path d="M222.746 370.77H121.081C118.357 370.767 115.744 369.683 113.818 367.756C111.891 365.83 110.808 363.218 110.805 360.493V297.877C110.808 295.152 111.891 292.54 113.818 290.614C115.744 288.687 118.357 287.603 121.081 287.6H222.746C225.471 287.603 228.083 288.687 230.01 290.614C231.936 292.54 233.02 295.152 233.023 297.877V360.493C233.02 363.218 231.936 365.83 230.01 367.756C228.083 369.683 225.471 370.767 222.746 370.77Z" fill="#E6E6E6"/>
<path d="M182.353 362.704H128.228C125.676 362.702 123.229 361.687 121.425 359.882C119.621 358.078 118.606 355.632 118.603 353.08V305.29C118.606 302.738 119.621 300.292 121.425 298.487C123.229 296.683 125.676 295.668 128.228 295.665H215.6C218.152 295.668 220.598 296.683 222.403 298.488C224.207 300.292 225.222 302.738 225.225 305.29V319.833C225.212 331.2 220.691 342.097 212.654 350.134C204.616 358.171 193.719 362.692 182.353 362.704V362.704Z" fill="white"/>
<path d="M206.884 321.834H136.944C136.339 321.834 135.758 321.594 135.331 321.166C134.903 320.738 134.663 320.158 134.663 319.553C134.663 318.948 134.903 318.368 135.331 317.94C135.758 317.512 136.339 317.272 136.944 317.272H206.884C207.489 317.272 208.069 317.512 208.497 317.94C208.925 318.368 209.165 318.948 209.165 319.553C209.165 320.158 208.925 320.738 208.497 321.166C208.069 321.594 207.489 321.834 206.884 321.834Z" fill="white"/>
<path d="M147.884 330.847H136.944C136.339 330.847 135.758 330.607 135.331 330.179C134.903 329.752 134.662 329.171 134.662 328.566C134.662 327.961 134.903 327.381 135.331 326.953C135.758 326.526 136.339 326.285 136.944 326.285H147.884C148.489 326.285 149.069 326.526 149.497 326.953C149.925 327.381 150.165 327.961 150.165 328.566C150.165 329.171 149.925 329.752 149.497 330.179C149.069 330.607 148.489 330.847 147.884 330.847V330.847Z" fill="white"/>
<path d="M167.261 339.861H136.944C136.339 339.86 135.76 339.619 135.334 339.191C134.907 338.763 134.667 338.184 134.667 337.58C134.667 336.976 134.907 336.396 135.334 335.968C135.76 335.541 136.339 335.3 136.944 335.299H167.261C167.865 335.3 168.444 335.541 168.871 335.968C169.298 336.396 169.537 336.976 169.537 337.58C169.537 338.184 169.298 338.763 168.871 339.191C168.444 339.619 167.865 339.86 167.261 339.861V339.861Z" fill="white"/>
<path d="M107.257 307.859C119.134 307.859 128.763 298.231 128.763 286.353C128.763 274.476 119.134 264.847 107.257 264.847C95.3791 264.847 85.7505 274.476 85.7505 286.353C85.7505 298.231 95.3791 307.859 107.257 307.859Z" fill="#3F3D56"/>
<path d="M486.746 86.7699H385.081C382.357 86.7668 379.744 85.6831 377.818 83.7565C375.891 81.8299 374.808 79.2177 374.805 76.4931V13.8769C374.808 11.1523 375.891 8.54018 377.818 6.61358C379.744 4.68698 382.357 3.60325 385.081 3.60016H486.746C489.471 3.60324 492.083 4.68696 494.01 6.61356C495.936 8.54017 497.02 11.1523 497.023 13.8769V76.4931C497.02 79.2177 495.936 81.8299 494.01 83.7565C492.083 85.6831 489.471 86.7668 486.746 86.7699V86.7699Z" fill="#E6E6E6"/>
<path d="M446.353 78.7045H392.228C389.676 78.7016 387.229 77.6868 385.425 75.8824C383.621 74.0781 382.606 71.6317 382.603 69.08V21.2899C382.606 18.7382 383.621 16.2918 385.425 14.4875C387.229 12.6832 389.676 11.6682 392.228 11.6654H479.6C482.152 11.6683 484.598 12.6832 486.403 14.4875C488.207 16.2919 489.222 18.7382 489.225 21.2899V35.8334C489.212 47.1996 484.691 58.0966 476.654 66.1337C468.616 74.1708 457.719 78.6917 446.353 78.7045Z" fill="white"/>
<path d="M470.884 37.8342H400.944C400.339 37.8342 399.758 37.5938 399.331 37.1661C398.903 36.7383 398.663 36.1581 398.663 35.5531C398.663 34.9482 398.903 34.368 399.331 33.9402C399.758 33.5125 400.339 33.2722 400.944 33.2722H470.884C471.489 33.2722 472.069 33.5125 472.497 33.9402C472.925 34.368 473.165 34.9482 473.165 35.5531C473.165 36.1581 472.925 36.7383 472.497 37.1661C472.069 37.5938 471.489 37.8342 470.884 37.8342Z" fill="white"/>
<path d="M411.884 46.8475H400.944C400.339 46.8475 399.758 46.6072 399.331 46.1794C398.903 45.7516 398.662 45.1714 398.662 44.5664C398.662 43.9614 398.903 43.3812 399.331 42.9534C399.758 42.5256 400.339 42.2853 400.944 42.2853H411.884C412.489 42.2853 413.069 42.5256 413.497 42.9534C413.925 43.3812 414.165 43.9614 414.165 44.5664C414.165 45.1714 413.925 45.7516 413.497 46.1794C413.069 46.6072 412.489 46.8475 411.884 46.8475Z" fill="white"/>
<path d="M431.261 55.8608H400.944C400.339 55.8596 399.76 55.6187 399.334 55.191C398.907 54.7634 398.667 54.1839 398.667 53.5797C398.667 52.9756 398.907 52.3961 399.334 51.9684C399.76 51.5408 400.339 51.2999 400.944 51.2986H431.261C431.866 51.2986 432.446 51.5389 432.874 51.9667C433.302 52.3945 433.542 52.9747 433.542 53.5797C433.542 54.1847 433.302 54.7649 432.874 55.1927C432.446 55.6205 431.866 55.8608 431.261 55.8608Z" fill="white"/>
<path d="M371.257 98.8592C383.134 98.8592 392.763 89.2306 392.763 77.3531C392.763 65.4755 383.134 55.8469 371.257 55.8469C359.379 55.8469 349.75 65.4755 349.75 77.3531C349.75 89.2306 359.379 98.8592 371.257 98.8592Z" fill="#3F3D56"/>
</g>
<defs>
<clipPath id="clip0_2_2">
<rect width="806.632" height="698.766" fill="white"/>
</clipPath>
</defs>
</svg>
