<svg width="873" height="591" viewBox="0 0 873 591" fill="none" xmlns="http://www.w3.org/2000/svg">
<g clip-path="url(#clip0_2_60)">
<path d="M742.905 462.498C761.522 445.722 789.214 437.286 812.442 446.693C788.615 459.922 770.235 481.153 760.554 506.628C756.856 516.467 753.767 527.794 744.672 533.062C739.012 536.339 731.972 536.499 725.626 534.917C719.28 533.335 713.464 530.163 707.727 527.023L706.095 526.986C713.423 503.02 724.287 479.275 742.905 462.498Z" fill="#E6E6E6"/>
<path d="M812.312 447.203C791.739 449.862 772.528 458.935 757.406 473.134C754.096 476.132 751.279 479.634 749.06 483.51C747.02 487.356 746.047 491.677 746.243 496.026C746.343 500.084 746.916 504.224 746.028 508.236C745.543 510.283 744.631 512.204 743.352 513.874C742.072 515.544 740.454 516.924 738.604 517.924C734.058 520.537 728.844 521.361 723.718 521.99C718.026 522.687 712.103 523.322 707.175 526.514C706.578 526.901 706.013 525.952 706.609 525.566C715.182 520.011 726.029 522.033 735.246 518.325C739.547 516.596 743.353 513.559 744.7 508.968C745.878 504.954 745.291 500.684 745.154 496.576C744.901 492.337 745.691 488.1 747.453 484.236C749.468 480.259 752.144 476.655 755.369 473.577C762.517 466.531 770.728 460.652 779.702 456.157C789.915 450.97 800.941 447.568 812.302 446.098C813.005 446.008 813.01 447.113 812.312 447.203H812.312Z" fill="white"/>
<path d="M762.006 468.275C759.968 465.414 759.013 461.923 759.312 458.423C759.611 454.924 761.145 451.644 763.638 449.171C764.144 448.672 764.943 449.436 764.436 449.935C762.11 452.234 760.682 455.289 760.41 458.548C760.139 461.807 761.041 465.056 762.954 467.709C763.369 468.286 762.419 468.849 762.006 468.275V468.275Z" fill="white"/>
<path d="M745.921 493.975C752.99 495.227 760.272 493.769 766.314 489.891C766.913 489.507 767.478 490.456 766.881 490.84C760.585 494.864 753.004 496.365 745.65 495.046C744.95 494.92 745.224 493.849 745.921 493.975V493.975Z" fill="white"/>
<path d="M790.005 452.431C790.563 453.703 791.428 454.815 792.522 455.669C793.616 456.524 794.905 457.093 796.274 457.326C796.976 457.443 796.701 458.513 796.003 458.397C794.493 458.132 793.07 457.502 791.859 456.561C790.648 455.62 789.686 454.396 789.057 452.998C788.986 452.871 788.967 452.722 789.003 452.581C789.038 452.441 789.126 452.319 789.248 452.24C789.374 452.166 789.524 452.144 789.666 452.18C789.808 452.216 789.93 452.306 790.005 452.431V452.431Z" fill="white"/>
<path d="M838.02 527.598C837.579 527.537 837.139 527.477 836.692 527.423C830.766 526.636 824.785 526.332 818.81 526.514C818.348 526.521 817.879 526.535 817.418 526.555C803.027 527.146 788.87 530.405 775.668 536.165C770.417 538.462 765.348 541.154 760.505 544.22C753.817 548.455 746.903 553.578 739.427 555.305C738.649 555.494 737.86 555.634 737.065 555.726L706.176 528.98C706.137 528.884 706.091 528.795 706.05 528.699L704.768 527.687C705.007 527.512 705.258 527.335 705.497 527.159C705.635 527.057 705.78 526.96 705.918 526.858C706.012 526.791 706.107 526.725 706.188 526.66C706.219 526.638 706.251 526.616 706.276 526.601C706.358 526.535 706.44 526.483 706.515 526.425C707.917 525.432 709.329 524.447 710.75 523.47C710.756 523.463 710.756 523.463 710.769 523.462C721.527 515.916 733.142 509.673 745.37 504.863C745.737 504.724 746.11 504.578 746.491 504.452C751.998 502.404 757.663 500.81 763.43 499.686C766.59 499.08 769.778 498.635 772.983 498.351C781.265 497.635 789.608 498.226 797.706 500.103C813.849 503.846 828.616 512.711 837.362 526.535C837.585 526.889 837.802 527.237 838.02 527.598Z" fill="#E6E6E6"/>
<path d="M837.611 527.93C819.584 517.667 798.782 513.344 778.159 515.577C773.711 515.979 769.354 517.079 765.249 518.837C761.305 520.68 757.926 523.545 755.464 527.134C753.101 530.435 751.066 534.085 747.941 536.754C746.322 538.097 744.437 539.082 742.41 539.644C740.383 540.207 738.26 540.335 736.18 540.02C730.977 539.369 726.318 536.888 721.847 534.303C716.882 531.433 711.771 528.374 705.914 527.957C705.205 527.906 705.325 526.808 706.033 526.858C716.222 527.584 723.666 535.729 733.258 538.319C737.733 539.527 742.6 539.394 746.44 536.539C749.798 534.043 751.899 530.281 754.263 526.918C756.614 523.381 759.795 520.474 763.528 518.449C767.531 516.487 771.838 515.221 776.266 514.704C786.216 513.382 796.311 513.632 806.183 515.446C817.461 517.453 828.312 521.375 838.268 527.042C838.884 527.393 838.223 528.279 837.611 527.93V527.93Z" fill="white"/>
<path d="M784.758 514.467C784.853 510.956 786.193 507.593 788.538 504.979C790.884 502.365 794.083 500.67 797.563 500.196C798.267 500.103 798.446 501.193 797.74 501.287C794.499 501.722 791.519 503.301 789.34 505.74C787.161 508.179 785.925 511.316 785.856 514.586C785.84 515.297 784.742 515.174 784.758 514.467V514.467Z" fill="white"/>
<path d="M756.441 525.303C761.332 530.559 768.024 533.779 775.183 534.321C775.893 534.374 775.773 535.472 775.064 535.419C767.615 534.841 760.658 531.476 755.581 525.995C755.097 525.472 755.961 524.783 756.441 525.303H756.441Z" fill="white"/>
<path d="M816.652 518.674C816.332 520.025 816.353 521.434 816.712 522.775C817.072 524.116 817.758 525.347 818.711 526.357C819.201 526.873 818.337 527.562 817.85 527.049C816.803 525.928 816.046 524.568 815.646 523.088C815.246 521.607 815.214 520.051 815.554 518.556C815.574 518.412 815.649 518.281 815.762 518.19C815.875 518.099 816.018 518.055 816.163 518.066C816.308 518.082 816.441 518.156 816.533 518.269C816.624 518.383 816.667 518.529 816.652 518.674V518.674Z" fill="white"/>
<path d="M255.543 479.184C270.788 456.061 298.058 439.335 325.518 442.934C303.715 463.712 289.963 491.532 286.696 521.472C285.478 533.023 285.326 545.998 277.064 554.162C271.923 559.241 264.437 561.372 257.21 561.445C249.983 561.518 242.88 559.744 235.87 557.981L234.114 558.396C235.284 530.725 240.298 502.306 255.543 479.184Z" fill="#E6E6E6"/>
<path d="M325.521 443.516C304.258 452.082 286.234 467.131 274.011 486.524C271.305 490.652 269.267 495.181 267.972 499.944C266.86 504.624 267.022 509.517 268.441 514.113C269.677 518.426 271.441 522.694 271.608 527.232C271.659 529.556 271.218 531.865 270.314 534.007C269.41 536.149 268.063 538.075 266.363 539.66C262.228 543.719 256.881 546.051 251.573 548.149C245.679 550.479 239.52 552.805 235.139 557.59C234.608 558.17 233.739 557.313 234.269 556.734C241.892 548.408 254.056 547.552 262.883 541.023C267.002 537.976 270.228 533.67 270.392 528.385C270.535 523.763 268.719 519.361 267.429 515.005C265.98 510.541 265.645 505.79 266.455 501.167C267.504 496.354 269.364 491.754 271.956 487.565C277.64 478.04 284.787 469.468 293.135 462.164C302.615 453.775 313.461 447.069 325.203 442.337C325.93 442.044 326.243 443.225 325.521 443.515L325.521 443.516Z" fill="white"/>
<path d="M277.579 480.048C274.604 477.555 272.612 474.086 271.958 470.26C271.304 466.434 272.032 462.501 274.011 459.161C274.413 458.487 275.48 459.081 275.077 459.756C273.228 462.862 272.551 466.527 273.167 470.088C273.783 473.65 275.652 476.874 278.436 479.178C279.041 479.68 278.18 480.546 277.579 480.048V480.048Z" fill="white"/>
<path d="M267.526 512.009C275.435 511.382 282.818 507.797 288.201 501.968C288.734 501.391 289.603 502.248 289.071 502.825C283.457 508.88 275.767 512.596 267.535 513.23C266.75 513.29 266.745 512.069 267.526 512.009H267.526Z" fill="white"/>
<path d="M303.118 455.313C304.068 456.517 305.303 457.467 306.71 458.076C308.118 458.685 309.656 458.936 311.184 458.804C311.967 458.734 311.971 459.955 311.193 460.025C309.504 460.162 307.806 459.884 306.249 459.214C304.692 458.544 303.323 457.504 302.261 456.183C302.151 456.066 302.088 455.913 302.087 455.752C302.086 455.592 302.146 455.437 302.255 455.319C302.369 455.205 302.523 455.14 302.685 455.139C302.847 455.138 303.002 455.2 303.118 455.313H303.118Z" fill="white"/>
<path d="M375.382 522.349C374.894 522.406 374.406 522.464 373.913 522.53C367.356 523.338 360.876 524.677 354.535 526.534C354.043 526.669 353.546 526.814 353.058 526.964C337.831 531.601 323.596 539.024 311.079 548.857C306.101 552.775 301.429 557.065 297.102 561.691C291.128 568.08 285.158 575.483 277.643 579.41C276.863 579.829 276.058 580.199 275.233 580.518L234.756 560.506C234.687 560.414 234.613 560.331 234.543 560.24L232.891 559.514C233.097 559.26 233.317 559.001 233.523 558.747C233.642 558.599 233.771 558.455 233.89 558.307C233.972 558.21 234.055 558.113 234.124 558.021C234.151 557.988 234.179 557.956 234.201 557.933C234.27 557.84 234.344 557.762 234.408 557.679C235.631 556.226 236.867 554.78 238.115 553.34C238.12 553.331 238.12 553.331 238.134 553.326C247.672 542.378 258.209 532.13 269.966 523.808C270.32 523.557 270.678 523.298 271.05 523.057C276.37 519.334 281.986 516.053 287.841 513.246C291.052 511.719 294.338 510.356 297.687 509.161C306.345 506.091 315.433 504.403 324.616 504.157C342.924 503.669 361.183 509.042 374.383 521.395C374.721 521.711 375.05 522.023 375.382 522.349Z" fill="#E6E6E6"/>
<path d="M375.037 522.817C352.902 516.855 329.451 518.02 308.015 526.145C303.37 527.812 299.016 530.201 295.114 533.224C291.408 536.291 288.592 540.295 286.957 544.82C285.348 549.007 284.187 553.477 281.588 557.201C280.229 559.087 278.487 560.665 276.476 561.831C274.464 562.997 272.229 563.724 269.917 563.966C264.172 564.718 258.499 563.36 252.997 561.839C246.889 560.151 240.571 558.301 234.191 559.484C233.418 559.627 233.241 558.419 234.013 558.276C245.112 556.218 255.34 562.858 266.319 562.959C271.442 563.007 276.61 561.51 279.922 557.389C282.819 553.785 284.02 549.177 285.613 544.922C287.143 540.485 289.736 536.491 293.166 533.287C296.901 530.075 301.156 527.522 305.748 525.738C316.021 521.556 326.888 519.015 337.951 518.208C350.572 517.218 363.269 518.394 375.493 521.685C376.249 521.889 375.789 523.02 375.037 522.817V522.817Z" fill="white"/>
<path d="M314.764 523.122C313.889 519.341 314.387 515.371 316.168 511.923C317.95 508.474 320.899 505.771 324.489 504.297C325.217 504.001 325.711 505.118 324.982 505.414C321.636 506.781 318.889 509.299 317.237 512.513C315.585 515.728 315.136 519.427 315.971 522.944C316.152 523.708 314.943 523.882 314.764 523.122H314.764Z" fill="white"/>
<path d="M287.493 542.589C294.186 546.85 302.239 548.432 310.047 547.02C310.821 546.879 310.998 548.087 310.225 548.227C302.098 549.682 293.721 548.018 286.766 543.569C286.103 543.144 286.834 542.166 287.493 542.589V542.589Z" fill="white"/>
<path d="M350.047 518.749C350.08 520.283 350.494 521.784 351.252 523.118C352.009 524.452 353.086 525.577 354.385 526.392C355.053 526.808 354.321 527.786 353.658 527.372C352.226 526.465 351.038 525.221 350.198 523.749C349.358 522.277 348.892 520.621 348.839 518.927C348.821 518.768 348.864 518.608 348.959 518.479C349.055 518.35 349.196 518.263 349.354 518.234C349.514 518.211 349.676 518.253 349.806 518.349C349.936 518.445 350.022 518.589 350.047 518.749V518.749Z" fill="white"/>
<path d="M364.038 305.828C365.05 304.822 365.829 303.606 366.319 302.266C366.81 300.926 367.001 299.495 366.879 298.074C366.757 296.652 366.324 295.275 365.612 294.038C364.9 292.802 363.925 291.736 362.757 290.917L378.689 213.811L361.5 219.233L348.682 293.828C347.436 295.882 346.987 298.322 347.42 300.685C347.852 303.048 349.137 305.17 351.03 306.649C352.923 308.128 355.292 308.862 357.69 308.711C360.088 308.559 362.346 307.534 364.038 305.828V305.828Z" fill="#FFB6B6"/>
<path d="M400.865 99.7192L390.217 91.6818C390.217 91.6818 380.824 91.0167 379.16 107.956C377.497 124.895 367.081 189.906 367.081 189.906L350.788 265.369L373.342 270.319L390.793 188.881L408.262 132.697L400.865 99.7192Z" fill="#E6E6E6"/>
<path d="M392.753 239.353L341.678 199.639C340.882 199.019 340.365 198.109 340.24 197.108C340.115 196.107 340.391 195.098 341.01 194.301L375.761 149.608C376.381 148.812 377.291 148.295 378.292 148.17C379.292 148.045 380.302 148.322 381.099 148.94L432.174 188.653C432.97 189.273 433.487 190.184 433.612 191.184C433.737 192.185 433.46 193.195 432.842 193.992L398.091 238.685C397.471 239.48 396.561 239.997 395.56 240.123C394.559 240.248 393.55 239.971 392.753 239.353V239.353Z" fill="#3F3D56"/>
<path d="M392.472 235.243L345.73 198.899C345.023 198.348 344.564 197.54 344.453 196.651C344.342 195.763 344.588 194.866 345.137 194.159L376.64 153.643C377.19 152.936 377.999 152.477 378.887 152.366C379.776 152.255 380.672 152.5 381.38 153.049L428.122 189.394C428.829 189.944 429.288 190.753 429.399 191.641C429.51 192.53 429.264 193.426 428.715 194.134L397.212 234.65C396.661 235.356 395.853 235.815 394.965 235.927C394.076 236.038 393.18 235.792 392.472 235.243V235.243Z" fill="white"/>
<path d="M351.858 197.868C351.681 197.73 351.566 197.528 351.539 197.306C351.511 197.084 351.572 196.86 351.709 196.683L367.602 176.244C367.739 176.067 367.941 175.952 368.164 175.924C368.274 175.911 368.385 175.919 368.492 175.948C368.599 175.977 368.699 176.028 368.787 176.096C368.874 176.164 368.948 176.248 369.002 176.345C369.057 176.441 369.093 176.547 369.106 176.657C369.12 176.767 369.112 176.879 369.083 176.986C369.053 177.093 369.003 177.193 368.935 177.28L353.043 197.72C352.905 197.896 352.703 198.011 352.481 198.039C352.259 198.067 352.035 198.005 351.858 197.868V197.868Z" fill="#E4E4E4"/>
<path d="M354.492 199.916C354.315 199.778 354.2 199.576 354.172 199.354C354.145 199.132 354.206 198.908 354.343 198.731L370.236 178.292C370.373 178.115 370.575 178 370.798 177.972C371.02 177.944 371.244 178.006 371.421 178.144C371.598 178.281 371.713 178.483 371.74 178.705C371.768 178.928 371.707 179.152 371.569 179.328L355.677 199.768C355.539 199.944 355.337 200.059 355.115 200.087C354.893 200.115 354.668 200.053 354.492 199.916Z" fill="#E4E4E4"/>
<path d="M366.129 190.385C365.953 190.247 365.838 190.045 365.81 189.823C365.782 189.601 365.844 189.377 365.981 189.2L372.87 180.34C372.938 180.252 373.022 180.179 373.119 180.124C373.215 180.069 373.322 180.033 373.432 180.019C373.542 180.006 373.654 180.013 373.761 180.043C373.868 180.072 373.968 180.122 374.056 180.191C374.143 180.259 374.217 180.343 374.272 180.44C374.326 180.536 374.362 180.643 374.375 180.753C374.389 180.863 374.381 180.975 374.351 181.082C374.322 181.189 374.271 181.289 374.203 181.377L367.314 190.237C367.177 190.413 366.974 190.528 366.752 190.556C366.53 190.584 366.306 190.522 366.129 190.385V190.385Z" fill="#E4E4E4"/>
<path d="M369.681 207.771C369.504 207.634 369.389 207.432 369.361 207.21C369.334 206.987 369.395 206.763 369.532 206.586L394.622 174.319C394.69 174.232 394.774 174.159 394.871 174.104C394.967 174.049 395.073 174.014 395.183 174C395.293 173.986 395.405 173.994 395.512 174.023C395.619 174.053 395.719 174.103 395.807 174.171C395.894 174.239 395.967 174.324 396.022 174.42C396.077 174.517 396.112 174.623 396.126 174.733C396.14 174.843 396.132 174.954 396.102 175.061C396.073 175.168 396.023 175.268 395.955 175.356L370.865 207.623C370.728 207.8 370.526 207.914 370.304 207.942C370.082 207.97 369.857 207.909 369.681 207.771V207.771Z" fill="#E4E4E4"/>
<path d="M372.315 209.819C372.138 209.682 372.023 209.48 371.995 209.258C371.968 209.035 372.029 208.811 372.166 208.634L397.256 176.367C397.324 176.28 397.408 176.207 397.505 176.152C397.601 176.097 397.707 176.062 397.817 176.048C397.927 176.034 398.039 176.042 398.146 176.071C398.253 176.101 398.353 176.151 398.441 176.219C398.528 176.287 398.601 176.372 398.656 176.468C398.711 176.565 398.746 176.671 398.76 176.781C398.774 176.891 398.766 177.003 398.737 177.109C398.707 177.216 398.657 177.316 398.589 177.404L373.5 209.671C373.362 209.848 373.16 209.962 372.938 209.99C372.716 210.018 372.492 209.957 372.315 209.819V209.819Z" fill="#E4E4E4"/>
<path d="M378.294 214.469C378.117 214.331 378.002 214.129 377.975 213.907C377.947 213.685 378.008 213.46 378.145 213.284L403.235 181.016C403.303 180.929 403.388 180.856 403.484 180.801C403.58 180.746 403.687 180.711 403.797 180.697C403.907 180.683 404.018 180.691 404.125 180.721C404.232 180.75 404.332 180.8 404.42 180.868C404.507 180.936 404.581 181.021 404.635 181.117C404.69 181.214 404.726 181.32 404.739 181.43C404.753 181.54 404.745 181.652 404.716 181.759C404.686 181.866 404.636 181.966 404.568 182.053L379.479 214.32C379.341 214.497 379.139 214.612 378.917 214.639C378.695 214.667 378.471 214.606 378.294 214.469V214.469Z" fill="#E4E4E4"/>
<path d="M380.928 216.517C380.751 216.379 380.636 216.177 380.609 215.955C380.581 215.733 380.642 215.509 380.779 215.332L405.869 183.064C405.937 182.977 406.022 182.904 406.118 182.849C406.214 182.794 406.321 182.759 406.431 182.745C406.541 182.731 406.652 182.739 406.759 182.769C406.866 182.798 406.966 182.848 407.054 182.916C407.141 182.984 407.215 183.069 407.269 183.165C407.324 183.262 407.36 183.368 407.373 183.478C407.387 183.588 407.379 183.7 407.35 183.807C407.32 183.914 407.27 184.014 407.202 184.101L382.113 216.368C381.975 216.545 381.773 216.66 381.551 216.687C381.329 216.715 381.105 216.654 380.928 216.517V216.517Z" fill="#E4E4E4"/>
<path d="M386.907 221.166C386.73 221.028 386.616 220.826 386.588 220.604C386.56 220.382 386.621 220.158 386.759 219.981L411.848 187.714C411.916 187.626 412.001 187.553 412.097 187.498C412.193 187.443 412.3 187.408 412.41 187.394C412.52 187.38 412.631 187.388 412.738 187.418C412.845 187.447 412.945 187.497 413.033 187.565C413.12 187.633 413.194 187.718 413.248 187.815C413.303 187.911 413.339 188.017 413.352 188.127C413.366 188.237 413.358 188.349 413.329 188.456C413.299 188.563 413.249 188.663 413.181 188.75L388.092 221.017C387.954 221.194 387.752 221.309 387.53 221.337C387.308 221.364 387.084 221.303 386.907 221.166Z" fill="#E4E4E4"/>
<path d="M389.541 223.214C389.364 223.076 389.25 222.874 389.222 222.652C389.194 222.43 389.255 222.206 389.393 222.029L414.482 189.762C414.62 189.586 414.822 189.472 415.043 189.444C415.265 189.417 415.489 189.478 415.665 189.616C415.842 189.753 415.957 189.954 415.985 190.176C416.013 190.398 415.952 190.622 415.815 190.798L390.726 223.065C390.588 223.242 390.386 223.357 390.164 223.385C389.942 223.412 389.718 223.351 389.541 223.214V223.214Z" fill="#E4E4E4"/>
<path d="M347.608 260.687C347.8 260.687 347.955 260.532 347.955 260.34C347.955 260.149 347.8 259.994 347.608 259.994C347.417 259.994 347.262 260.149 347.262 260.34C347.262 260.532 347.417 260.687 347.608 260.687Z" fill="white"/>
<path d="M398.128 21.7963C396.908 28.3481 394.909 34.7302 392.171 40.8065C376.498 73.9632 421.133 63.1558 437.084 63.1558C454.524 63.1558 471.21 72.3265 468.662 31.5779C467.573 14.1719 454.524 0 437.084 0C422.187 0 401.243 6.62127 398.128 21.7963Z" fill="#2F2E41"/>
<path d="M453.34 508.085H438.481L431.41 450.772H453.34V508.085Z" fill="#FFB6B6"/>
<path d="M461.183 533.83H450.527L448.625 523.77L443.753 533.83H415.491C414.137 533.83 412.817 533.397 411.726 532.594C410.635 531.792 409.829 530.661 409.426 529.368C409.023 528.074 409.043 526.686 409.485 525.405C409.927 524.125 410.767 523.019 411.881 522.249L434.451 506.662V496.491L458.189 497.908L461.183 533.83Z" fill="#2F2E41"/>
<path d="M541.617 489.333L529.693 498.2L489.82 456.429L507.418 443.342L541.617 489.333Z" fill="#FFB6B6"/>
<path d="M563.273 505.312L554.722 511.671L547.192 504.733L549.287 515.713L526.608 532.577C525.521 533.386 524.204 533.825 522.849 533.832C521.494 533.839 520.173 533.413 519.078 532.616C517.982 531.818 517.171 530.692 516.761 529.401C516.351 528.109 516.365 526.721 516.8 525.438L525.61 499.463L519.541 491.301L539.436 478.273L563.273 505.312Z" fill="#2F2E41"/>
<path d="M404.675 244.313L475.21 233.327L461.183 191.129H404.675V244.313Z" fill="#FFB6B6"/>
<path d="M470.639 212.382C470.639 212.382 498.832 236.739 485.824 306.175L469.944 374.211L513.21 449.327L491.21 461.327L437.892 387.221L413.494 329.991L400.589 229.69L470.639 212.382Z" fill="#2F2E41"/>
<path d="M426.942 346.301L425.246 372.562L430.21 450.327L454.854 458.812L459.521 379.134L426.942 346.301Z" fill="#2F2E41"/>
<path d="M419.365 71.8958L446.63 72.9594L457.497 90.997L482.289 95.8368L467.488 170.71L470.21 213.327L445.524 213.176C427.733 213.068 410.529 219.531 397.21 231.327V231.327L397.949 176.007L387.33 134.711L389.717 91.4098L409.661 88.9168L419.365 71.8958Z" fill="#E6E6E6"/>
<path d="M434.471 63.148C448.643 63.148 460.131 51.6593 460.131 37.4874C460.131 23.3154 448.643 11.8268 434.471 11.8268C420.299 11.8268 408.81 23.3154 408.81 37.4874C408.81 51.6593 420.299 63.148 434.471 63.148Z" fill="#FFB6B6"/>
<path d="M417.045 11.3299C421.541 8.58869 426.692 7.10582 431.957 7.0364C437.223 6.96698 442.411 8.31355 446.978 10.9353C451.545 13.5571 455.324 17.3577 457.92 21.9399C460.516 26.522 461.832 31.7173 461.733 36.9826C448.658 40.2655 434.921 42.7777 420.977 37.7678L417.684 29.7086L415.743 37.7738C411.496 39.5095 407.239 40.978 402.981 37.7571C402.808 32.5066 404.015 27.3025 406.483 22.6649C408.951 18.0274 412.593 14.1188 417.045 11.3299Z" fill="#2F2E41"/>
<path d="M477.543 265.061L481.002 296.454C481.243 297.237 481.728 297.923 482.387 298.41C483.047 298.896 483.845 299.159 484.664 299.159H500.609C501.429 299.159 502.227 298.897 502.886 298.41C503.545 297.923 504.031 297.237 504.272 296.454L507.137 272.393C507.964 272.799 508.876 273.002 509.796 272.987C510.717 272.971 511.621 272.737 512.434 272.304C513.247 271.871 513.946 271.252 514.473 270.496C514.999 269.741 515.339 268.871 515.464 267.958C515.589 267.046 515.496 266.117 515.192 265.247C514.888 264.378 514.382 263.593 513.716 262.957C513.049 262.321 512.241 261.853 511.358 261.59C510.476 261.328 509.543 261.278 508.638 261.446C508.28 261.024 507.835 260.685 507.333 260.453C506.83 260.221 506.284 260.101 505.73 260.102H481.205C480.606 260.102 480.014 260.243 479.479 260.513C478.944 260.783 478.479 261.175 478.123 261.658C477.767 262.14 477.528 262.699 477.428 263.291C477.327 263.882 477.366 264.488 477.543 265.061V265.061ZM507.638 270.766L509.393 265.061C509.596 264.403 509.616 263.702 509.451 263.033C509.526 263.029 509.596 263.011 509.672 263.011C510.774 263.011 511.831 263.449 512.61 264.228C513.389 265.007 513.827 266.064 513.827 267.166C513.827 268.268 513.389 269.325 512.61 270.104C511.831 270.883 510.774 271.321 509.672 271.321C508.957 271.316 508.256 271.125 507.638 270.766V270.766Z" fill="black"/>
<path d="M501.587 299.181C500.58 298.169 499.808 296.949 499.324 295.607C498.84 294.265 498.656 292.833 498.786 291.412C498.915 289.991 499.354 288.615 500.073 287.382C500.791 286.15 501.771 285.089 502.944 284.276L487.404 207.09L504.565 212.6L517.004 287.258C518.239 289.319 518.676 291.761 518.231 294.121C517.786 296.482 516.491 298.598 514.591 300.067C512.69 301.537 510.317 302.258 507.92 302.095C505.523 301.932 503.27 300.895 501.587 299.181V299.181Z" fill="#FFB6B6"/>
<path d="M471.641 103.874L482.289 95.8368C482.289 95.8368 491.681 95.1717 493.345 112.111C495.009 129.05 505.424 194.061 505.424 194.061L521.717 269.524L499.164 274.474L481.713 193.036L464.244 136.852L471.641 103.874Z" fill="#E6E6E6"/>
<path d="M379.745 174.137C383.074 174.137 385.772 171.439 385.772 168.11C385.772 164.781 383.074 162.083 379.745 162.083C376.416 162.083 373.718 164.781 373.718 168.11C373.718 171.439 376.416 174.137 379.745 174.137Z" fill="black"/>
<path d="M187.545 578.006L200.106 578.005L206.082 529.556L187.543 529.557L187.545 578.006Z" fill="#FFB6B6"/>
<path d="M184.341 573.905L187.877 573.904L201.68 568.291L209.078 573.904H209.079C213.26 573.904 217.269 575.565 220.226 578.521C223.182 581.477 224.843 585.487 224.843 589.668V590.18L184.342 590.182L184.341 573.905Z" fill="#2F2E41"/>
<path d="M236.221 570.09L248.474 572.857L264.975 526.914L246.891 522.831L236.221 570.09Z" fill="#FFB6B6"/>
<path d="M233.999 565.384L237.448 566.163L252.149 563.728L258.129 570.832L258.13 570.832C262.208 571.754 265.753 574.257 267.986 577.792C270.218 581.327 270.955 585.604 270.034 589.682L269.922 590.182L230.414 581.261L233.999 565.384Z" fill="#2F2E41"/>
<path d="M164.55 328.79L175.908 456.05C175.908 456.05 171.652 532.451 185.385 559.336H205.302L215.163 449.073L216.402 375.064L259.101 437.502L231.904 557.533L256.417 559.724L300.55 429.463L252.064 307.178L164.55 328.79Z" fill="#2F2E41"/>
<path d="M176.446 126.132C192.624 126.132 205.739 113.017 205.739 96.8386C205.739 80.6605 192.624 67.5456 176.446 67.5456C160.268 67.5456 147.153 80.6605 147.153 96.8386C147.153 113.017 160.268 126.132 176.446 126.132Z" fill="#FFB8B8"/>
<path d="M227.941 154.046L203.909 143.735L192.21 131.327L162.985 136.04L155.231 149.335L130.13 172.675L159.539 305.649L158.648 334.691C158.648 334.691 177.471 343.165 259.101 323.655C260.08 323.421 258.031 322.397 258.031 322.397L227.941 154.046Z" fill="#3F3D56"/>
<path d="M145.986 113.46C145.781 113.182 145.579 112.901 145.379 112.617C145.299 112.788 145.235 112.963 145.143 113.129L145.986 113.46Z" fill="#2F2E41"/>
<path d="M205.585 75.412C203.626 71.1465 200.135 67.7737 195.805 65.964C191.512 64.2327 186.715 64.2369 182.426 65.9757C178.553 63.529 174.25 61.5893 169.719 61.349C165.187 61.1088 160.396 62.7899 157.604 66.4906C156.98 67.4674 156.272 68.3876 155.487 69.2404C153.242 71.3192 149.831 71.0193 146.847 70.5943C148.186 71.7412 149.524 72.8882 150.863 74.0351C149.243 74.4583 147.623 74.8815 146.003 75.3047C147.894 76.4512 149.784 77.5978 151.674 78.7444C146.186 82.0384 143.692 89.2279 144.351 95.7576C144.974 101.94 147.959 107.593 151.527 112.617C152.95 109.614 152.643 106.02 152.62 102.637C152.595 99.0629 153.227 95.0042 156.092 93.0066C158.024 91.6591 160.508 91.599 162.838 91.6117C174.59 91.6762 186.328 92.4091 197.997 93.8067C199.58 93.8752 201.124 94.323 202.498 95.1123C205.079 96.8727 205.582 100.506 205.841 103.693C207.204 98.4303 207.871 93.0117 207.825 87.5757C207.94 83.4088 207.177 79.2644 205.585 75.412V75.412Z" fill="#2F2E41"/>
<path d="M214.704 418C240.168 418 260.81 397.358 260.81 371.895C260.81 346.432 240.168 325.79 214.704 325.79C189.241 325.79 168.599 346.432 168.599 371.895C168.599 397.358 189.241 418 214.704 418Z" fill="white"/>
<path d="M214.704 324.765C212.334 324.765 209.968 324.944 207.625 325.298C206.426 325.472 205.258 325.698 204.1 325.974C195.595 327.935 187.801 332.22 181.589 338.352C175.377 344.484 170.991 352.221 168.92 360.7C166.849 369.18 167.175 378.068 169.861 386.373C172.547 394.678 177.488 402.073 184.132 407.734C184.921 408.4 185.72 409.045 186.55 409.66C192.531 414.12 199.486 417.095 206.842 418.342C214.198 419.588 221.745 419.07 228.862 416.83C235.979 414.59 242.462 410.692 247.778 405.457C253.093 400.222 257.09 393.799 259.439 386.717C261.787 379.636 262.421 372.097 261.287 364.723C260.153 357.349 257.284 350.349 252.916 344.3C248.548 338.251 242.806 333.326 236.163 329.93C229.52 326.534 222.165 324.764 214.704 324.765V324.765ZM214.704 416.975C205.119 416.986 195.782 413.923 188.066 408.236C187.226 407.621 186.417 406.986 185.628 406.31C179.154 400.849 174.351 393.675 171.769 385.609C169.187 377.543 168.93 368.913 171.029 360.708C173.127 352.503 177.496 345.056 183.634 339.221C189.771 333.385 197.429 329.398 205.73 327.716C206.877 327.48 208.024 327.296 209.192 327.152C211.021 326.926 212.862 326.813 214.704 326.814C226.661 326.814 238.127 331.564 246.581 340.018C255.036 348.472 259.785 359.939 259.785 371.895C259.785 383.851 255.036 395.317 246.581 403.772C238.127 412.226 226.661 416.975 214.704 416.975V416.975Z" fill="#3F3D56"/>
<path d="M192.09 362.674H237.318C238.975 362.674 240.318 361.331 240.318 359.674V359.526C240.318 357.87 238.975 356.526 237.318 356.526H192.09C190.434 356.526 189.09 357.87 189.09 359.526V359.674C189.09 361.331 190.434 362.674 192.09 362.674Z" fill="black"/>
<path d="M192.09 374.969H237.318C238.975 374.969 240.318 373.625 240.318 371.969V371.821C240.318 370.164 238.975 368.821 237.318 368.821H192.09C190.434 368.821 189.09 370.164 189.09 371.821V371.969C189.09 373.625 190.434 374.969 192.09 374.969Z" fill="black"/>
<path d="M192.09 387.263H237.318C238.975 387.263 240.318 385.92 240.318 384.263V384.116C240.318 382.459 238.975 381.116 237.318 381.116H192.09C190.434 381.116 189.09 382.459 189.09 384.116V384.263C189.09 385.92 190.434 387.263 192.09 387.263Z" fill="black"/>
<path d="M730.52 576.442L717.349 576.441L711.083 525.639L730.522 525.64L730.52 576.442Z" fill="#9E616A"/>
<path d="M668.209 576.442L655.039 576.441L648.773 525.639L668.212 525.64L668.209 576.442Z" fill="#9E616A"/>
<path d="M668.673 590.182L628.172 590.18V589.668C628.172 585.487 629.833 581.477 632.789 578.521C635.746 575.565 639.755 573.904 643.936 573.904H643.937L651.335 568.291L665.138 573.904L668.674 573.905L668.673 590.182Z" fill="#2F2E41"/>
<path d="M732.673 590.182L692.172 590.18V589.668C692.172 585.487 693.833 581.477 696.789 578.521C699.746 575.565 703.755 573.904 707.936 573.904H707.937L715.335 568.291L729.138 573.904L732.674 573.905L732.673 590.182Z" fill="#2F2E41"/>
<path d="M655.29 275.779L635.273 397.663L640.721 415.826L633.572 428.689L644.07 541.659L639.809 551.041L651.714 558.383H675.94L677.226 456.11L683.21 441.095V432.819L695.392 370.455L697.635 457.792L701.179 472.831L698.202 483.539L702.092 491.041L712.423 560.612H739.588L737.487 544.426C739.853 543.228 741.754 541.278 742.891 538.881C744.028 536.485 744.336 533.779 743.768 531.189L742.21 524.095L745.755 503.118L752.21 386.095L750.39 291.671L718.612 267.371L655.29 275.779Z" fill="#2F2E41"/>
<path d="M701.179 119.265C715.118 119.265 726.418 107.965 726.418 94.0261C726.418 80.0871 715.118 68.7873 701.179 68.7873C687.24 68.7873 675.94 80.0871 675.94 94.0261C675.94 107.965 687.24 119.265 701.179 119.265Z" fill="#9E616A"/>
<path d="M646.035 324.146C647.134 323.011 647.97 321.649 648.485 320.156C649 318.663 649.181 317.075 649.016 315.505C648.851 313.934 648.344 312.419 647.53 311.065C646.716 309.712 645.615 308.553 644.305 307.671L654.12 270.556L635.211 276.917L628.79 311.186C627.454 313.486 627.008 316.195 627.536 318.801C628.065 321.407 629.531 323.728 631.656 325.326C633.782 326.923 636.42 327.686 639.07 327.468C641.72 327.251 644.198 326.069 646.035 324.146H646.035Z" fill="#9E616A"/>
<path d="M656.364 145.951L652.305 145.109L648.844 147.025C648.844 147.025 639.175 159.917 639.175 171.735C639.175 183.552 627.357 297.43 627.357 297.43L648.844 307.098L666.033 217.93L656.364 145.951Z" fill="#E6E6E6"/>
<path d="M723.281 75.5215C723.281 75.5215 729.882 62.9021 715.36 61.7549C715.36 61.7549 702.979 50.524 690.36 59.7017C690.36 59.7017 683.476 59.7017 679.712 67.491C679.712 67.491 674.299 65.4378 673.109 70.9326C673.109 70.9326 669.148 82.4048 673.109 92.7298C677.07 103.055 678.386 104.202 678.386 104.202C678.386 104.202 671.877 82.5551 687.721 81.4079C703.565 80.2607 721.295 70.359 722.616 82.9784C723.936 95.5978 725.923 98.7071 725.923 98.7071C725.923 98.7071 738.465 80.684 723.281 75.5215Z" fill="#2F2E41"/>
<path d="M815.477 428.689C813.572 428.692 811.733 427.99 810.314 426.72L733.933 358.728C732.394 357.355 731.463 355.427 731.343 353.368C731.223 351.309 731.925 349.286 733.295 347.744L782.225 292.776C783.598 291.237 785.526 290.305 787.586 290.185C789.645 290.065 791.668 290.768 793.21 292.137L869.591 360.13C871.133 361.502 872.066 363.429 872.185 365.489C872.305 367.549 871.601 369.572 870.23 371.113L821.299 426.081C820.622 426.846 819.799 427.47 818.879 427.915C817.959 428.361 816.959 428.619 815.939 428.676C815.784 428.685 815.631 428.689 815.477 428.689Z" fill="white"/>
<path d="M815.476 429.189C813.449 429.192 811.492 428.446 809.982 427.094L733.601 359.102C731.963 357.641 730.971 355.589 730.844 353.397C730.717 351.205 731.464 349.053 732.922 347.411L781.852 292.443C783.314 290.805 785.365 289.814 787.557 289.687C789.748 289.559 791.901 290.306 793.543 291.763L869.924 359.756C871.564 361.216 872.557 363.268 872.684 365.46C872.812 367.653 872.063 369.806 870.603 371.446L821.673 426.414C820.951 427.228 820.076 427.892 819.097 428.366C818.118 428.84 817.054 429.115 815.968 429.176C815.803 429.184 815.64 429.189 815.476 429.189ZM788.04 291.671C787.154 291.669 786.277 291.856 785.467 292.218C784.658 292.581 783.935 293.111 783.346 293.773L734.416 348.741C733.31 349.986 732.743 351.619 732.84 353.281C732.936 354.944 733.688 356.5 734.931 357.608L811.312 425.599C811.928 426.148 812.646 426.57 813.425 426.841C814.204 427.112 815.029 427.226 815.852 427.178C816.675 427.131 817.481 426.921 818.224 426.562C818.966 426.202 819.63 425.7 820.178 425.084L869.109 370.116C870.217 368.872 870.784 367.239 870.688 365.576C870.591 363.914 869.838 362.357 868.594 361.25L792.213 293.258C791.064 292.234 789.579 291.669 788.04 291.671H788.04Z" fill="#3F3D56"/>
<path d="M843.175 376.632C842.35 376.633 841.553 376.33 840.938 375.781L780.982 322.41C780.65 322.116 780.379 321.76 780.185 321.362C779.991 320.964 779.878 320.531 779.851 320.089C779.825 319.647 779.886 319.203 780.031 318.785C780.176 318.366 780.403 317.98 780.697 317.65C780.992 317.319 781.349 317.049 781.748 316.856C782.147 316.664 782.58 316.552 783.022 316.527C783.465 316.502 783.907 316.564 784.326 316.711C784.744 316.857 785.129 317.085 785.459 317.381L845.415 370.752C845.925 371.206 846.285 371.804 846.447 372.467C846.609 373.13 846.566 373.827 846.323 374.465C846.08 375.102 845.649 375.651 845.086 376.038C844.524 376.425 843.857 376.632 843.175 376.632V376.632Z" fill="black"/>
<path d="M831.738 389.478C830.914 389.48 830.117 389.177 829.502 388.628L769.546 335.257C769.215 334.963 768.946 334.607 768.754 334.209C768.561 333.811 768.449 333.379 768.423 332.937C768.398 332.496 768.459 332.054 768.605 331.636C768.75 331.219 768.976 330.834 769.27 330.504C769.564 330.174 769.92 329.905 770.318 329.712C770.716 329.52 771.148 329.407 771.589 329.382C772.031 329.356 772.473 329.418 772.89 329.563C773.308 329.708 773.693 329.934 774.023 330.228L833.979 383.599C834.489 384.053 834.849 384.651 835.011 385.314C835.173 385.977 835.13 386.674 834.887 387.312C834.644 387.95 834.213 388.499 833.65 388.885C833.088 389.272 832.421 389.479 831.738 389.478H831.738Z" fill="black"/>
<path d="M820.302 402.327C819.477 402.328 818.681 402.025 818.065 401.475L758.109 348.105C757.778 347.811 757.508 347.455 757.315 347.057C757.122 346.659 757.009 346.227 756.984 345.785C756.958 345.343 757.019 344.901 757.164 344.483C757.31 344.065 757.536 343.68 757.83 343.349C758.124 343.019 758.481 342.75 758.879 342.557C759.277 342.364 759.71 342.252 760.151 342.227C760.593 342.201 761.036 342.263 761.453 342.409C761.871 342.555 762.256 342.781 762.586 343.076L822.542 396.447C823.052 396.901 823.412 397.499 823.574 398.162C823.737 398.825 823.693 399.522 823.45 400.16C823.207 400.797 822.776 401.346 822.214 401.734C821.652 402.121 820.985 402.328 820.302 402.327H820.302Z" fill="black"/>
<path d="M751.737 326.336C750.968 324.957 750.51 323.426 750.397 321.851C750.283 320.276 750.516 318.695 751.08 317.219C751.643 315.744 752.523 314.41 753.658 313.311C754.793 312.213 756.155 311.377 757.648 310.862L757.713 272.471L774.348 283.482L771.736 318.25C772.436 320.815 772.169 323.548 770.989 325.931C769.808 328.313 767.794 330.179 765.329 331.176C762.863 332.173 760.118 332.231 757.613 331.339C755.108 330.447 753.018 328.667 751.737 326.336H751.737Z" fill="#9E616A"/>
<path d="M753.275 156.471L760.707 149.308L766.167 153.248C766.167 153.248 771.538 159.694 775.836 179.032C780.133 198.37 775.836 304.727 775.836 304.727L752.201 301.504L755.424 245.639L745.755 198.37L753.275 156.471Z" fill="#E6E6E6"/>
<path d="M764.25 151.055L739.21 139.095L722.21 123.327L691.21 123.095L681.21 136.095L654.81 145.062L659.21 236.095L656.21 243.095C656.21 243.095 658.3 244.983 659.255 246.039C660.21 247.095 657.936 255.935 657.936 255.935L656.653 265.553L660.21 268.095L655.586 273.557L654.438 282.166C654.438 282.166 735.153 262.105 750.404 295.339C751.21 297.095 749.226 279.934 749.226 279.934L747.242 267.371L749.21 256.095L752.21 253.095L747.179 248.063L750.404 224.189L764.25 151.055Z" fill="#3F3D56"/>
<path d="M196.41 352.866C197.031 351.288 197.299 349.593 197.195 347.901C197.09 346.208 196.616 344.559 195.805 343.07C194.994 341.58 193.867 340.287 192.502 339.28C191.137 338.274 189.569 337.579 187.906 337.244L182.344 296.4L166.217 310.498L173.971 347.123C173.594 349.953 174.268 352.823 175.866 355.189C177.463 357.555 179.873 359.253 182.639 359.961C185.405 360.669 188.335 360.338 190.873 359.03C193.411 357.722 195.381 355.529 196.41 352.866V352.866Z" fill="#FFB8B8"/>
<path d="M133.225 171.929L128.853 172.766L126.211 176.092C126.211 176.092 121.936 192.859 126.806 204.576C131.675 216.293 166.882 334.073 166.882 334.073L192.17 334.806L172.471 239.312L133.225 171.929Z" fill="#3F3D56"/>
<path d="M232.917 346.875C231.752 345.642 230.871 344.17 230.337 342.56C229.803 340.951 229.628 339.244 229.825 337.559C230.022 335.875 230.586 334.254 231.477 332.812C232.368 331.369 233.564 330.139 234.982 329.209L224.915 289.236L245.135 296.304L251.596 333.179C253.001 335.664 253.445 338.579 252.845 341.37C252.245 344.161 250.642 346.635 248.339 348.323C246.037 350.012 243.195 350.797 240.353 350.53C237.51 350.263 234.864 348.962 232.917 346.875V346.875Z" fill="#FFB8B8"/>
<path d="M224.082 155.426L228.45 154.573L232.142 156.674C232.142 156.674 242.36 170.638 242.211 183.326C242.061 196.013 253.308 318.427 253.308 318.427L230.117 328.536L212.79 232.584L224.082 155.426Z" fill="#3F3D56"/>
</g>
<defs>
<clipPath id="clip0_2_60">
<rect width="872.699" height="590.182" fill="white"/>
</clipPath>
</defs>
</svg>
